<svg width="124" height="135" viewBox="0 0 124 135" fill="none" xmlns="http://www.w3.org/2000/svg">
<path d="M0 0H124V75C124 108.137 97.1371 135 64 135H60C26.8629 135 0 108.137 0 75V0Z" fill="#8BC2DF"/>
<path d="M15 73H16C41.4051 73 62 93.5949 62 119H61C35.5949 119 15 98.4051 15 73Z" fill="#56E2C1"/>
<path d="M62 119V118C62 92.5949 82.5949 72 108 72V73C108 98.4051 87.4051 119 62 119Z" fill="#56E2C1"/>
<path d="M61.5 79C60.7417 79 59.9703 78.8656 59.186 78.5969C58.4017 78.3281 57.7105 77.8982 57.1125 77.3069L51.5063 72.2277C45.7646 67.0141 40.5776 61.8414 35.9453 56.7095C31.3129 51.5777 28.9978 45.9201 29 39.7369C29 34.6846 30.7063 30.4653 34.1188 27.0792C37.5313 23.6931 41.7833 22 46.875 22C49.7458 22 52.4542 22.6041 55 23.8124C57.5458 25.0206 59.7125 26.6739 61.5 28.7723C63.2875 26.6761 65.4542 25.0239 68 23.8156C70.5458 22.6074 73.2542 22.0021 76.125 22C81.2167 22 85.4687 23.6931 88.8812 27.0792C92.2937 30.4653 94 34.6846 94 39.7369C94 45.918 91.6979 51.5884 87.0938 56.7482C82.4896 61.9081 77.2625 67.0948 71.4125 72.3083L65.8875 77.3069C65.2917 77.8982 64.6016 78.3281 63.8172 78.5969C63.0329 78.8656 62.2605 79 61.5 79Z" fill="#FF76AD"/>
</svg>
