<svg width="164" height="46" viewBox="0 0 164 46" fill="none" xmlns="http://www.w3.org/2000/svg">
<path d="M43.648 33.576C41.452 33.576 39.436 32.568 37.996 31.164C37.42 30.588 36.988 30.624 36.844 31.452L36.52 33.108H35.62L35.692 22.344H36.628C36.88 27.564 39.616 32.064 43.576 32.064C46.672 32.064 48.004 29.652 48.004 27.42C48.004 24.108 45.448 21.984 42.496 19.752C38.896 17.016 35.872 14.748 35.872 10.5C35.872 6.216 38.968 3.624 43.036 3.624C45.124 3.624 46.564 4.272 47.824 5.46C48.436 6 48.94 5.856 49.048 5.064L49.228 3.984H50.092L50.524 13.452H49.624C49.264 9.024 47.104 5.1 43.288 5.1C40.624 5.1 39.184 7.044 39.184 9.276C39.184 12.084 41.272 13.812 44.62 16.332C48.364 19.104 51.316 21.588 51.316 26.016C51.316 30.552 48.076 33.576 43.648 33.576ZM79.5065 4.2V5.064C76.1585 5.064 75.6545 5.712 75.6545 7.908V29.292C75.6545 31.488 76.1585 32.136 79.5065 32.136V33H67.9865V32.136C71.1545 32.136 71.6225 31.488 71.6225 29.292V18.564H60.4625V29.292C60.4625 31.488 60.8945 32.136 64.0625 32.136V33H52.5785V32.136C55.9265 32.136 56.3945 31.488 56.3945 29.292V7.908C56.3945 5.712 55.9265 5.064 52.5785 5.064V4.2H64.0625V5.064C60.8945 5.064 60.4625 5.712 60.4625 7.908V17.016H71.6225V7.908C71.6225 5.712 71.1545 5.064 67.9865 5.064V4.2H79.5065ZM84.6602 29.292V7.908C84.6602 5.712 84.1922 5.064 80.8442 5.064V4.2H92.5802V5.064C89.1962 5.064 88.7282 5.712 88.7282 7.908V29.292C88.7282 31.488 89.1962 32.136 92.5802 32.136V33H80.8442V32.136C84.1922 32.136 84.6602 31.488 84.6602 29.292ZM112.786 4.2L112.894 5.28L113.578 11.472L112.57 11.58C112.03 6.648 111.202 5.82 108.646 5.82H103.498C102.382 5.82 101.806 6.432 101.806 7.512V17.412H106.27C108.394 17.412 109.006 16.872 109.006 13.164H109.834V22.92H109.006C109.006 19.248 108.394 18.708 106.27 18.708H101.806V29.328C101.806 31.02 102.094 31.38 103.498 31.38H108.61C111.31 31.38 112.354 30.336 113.794 24.828L114.802 25.116L113.038 31.956L112.75 33H93.9223V32.136C97.2703 32.136 97.7383 31.488 97.7383 29.292V7.908C97.7383 5.712 97.2703 5.064 93.9223 5.064V4.2H112.786ZM127.983 4.2V5.064C124.599 5.064 124.131 5.712 124.131 7.908V29.004C124.131 31.02 124.562 31.38 126.363 31.38H130.719C133.419 31.38 134.463 30.3 135.795 24.504L136.803 24.756L135.147 31.992L134.931 33H116.247V32.136C119.595 32.136 120.062 31.488 120.062 29.292V7.908C120.062 5.712 119.595 5.064 116.247 5.064V4.2H127.983ZM148.49 33H137.762V32.136C141.11 32.136 141.578 31.488 141.578 29.292V7.908C141.578 5.712 141.11 5.064 137.762 5.064V4.2H148.13C155.69 4.2 162.494 8.7 162.494 18.744C162.494 28.392 156.194 33 148.49 33ZM148.058 31.524C154.934 31.524 158.246 26.088 158.246 18.996C158.246 10.752 153.746 5.676 148.094 5.676C147.302 5.676 146.618 5.784 146.33 5.892C145.862 6 145.646 6.324 145.646 6.828V29.976C145.646 31.164 146.474 31.524 148.058 31.524Z" fill="#8BC2DF"/>
<path d="M0 3H27.5502V19.2191C27.5502 26.8268 21.3829 32.9941 13.7751 32.9941C6.16732 32.9941 0 26.8268 0 19.2191V3Z" fill="#8BC2DF"/>
<path d="M3.33276 19.2191H3.55494C9.19942 19.2191 13.7752 23.7948 13.7752 29.4393H13.553C7.90851 29.4393 3.33276 24.8635 3.33276 19.2191Z" fill="#56E2C1"/>
<path d="M13.7751 29.4392V29.2171C13.7751 23.5726 18.3509 18.9968 23.9954 18.9968V19.219C23.9954 24.8635 19.4196 29.4392 13.7751 29.4392Z" fill="#56E2C1"/>
<path d="M13.6639 20.5521C13.4954 20.5521 13.3241 20.5223 13.1498 20.4626C12.9755 20.4029 12.822 20.3073 12.6891 20.176L11.4435 19.0475C10.1679 17.8891 9.01541 16.7399 7.9862 15.5997C6.957 14.4595 6.44263 13.2025 6.44312 11.8287C6.44312 10.7062 6.82221 9.76876 7.58039 9.01643C8.33858 8.2641 9.2833 7.88794 10.4146 7.88794C11.0524 7.88794 11.6541 8.02216 12.2198 8.29061C12.7854 8.55906 13.2668 8.92639 13.6639 9.3926C14.0611 8.92687 14.5425 8.55978 15.1081 8.29133C15.6737 8.02288 16.2755 7.88842 16.9133 7.88794C18.0446 7.88794 18.9893 8.2641 19.7475 9.01643C20.5056 9.76876 20.8847 10.7062 20.8847 11.8287C20.8847 13.202 20.3733 14.4619 19.3503 15.6083C18.3274 16.7547 17.166 17.907 15.8663 19.0654L14.6387 20.176C14.5064 20.3073 14.353 20.4029 14.1788 20.4626C14.0045 20.5223 13.8329 20.5521 13.6639 20.5521Z" fill="#FF76AD"/>
</svg>
