<svg width="988" height="253" viewBox="0 0 988 253" fill="none" xmlns="http://www.w3.org/2000/svg">
<path d="M194.177 127.295L125.941 126.941L126.295 195.177" stroke="url(#paint0_linear_328_8)" stroke-width="100" stroke-linecap="round"/>
<path d="M58 126.882L126.236 127.236L125.882 59.0001" stroke="url(#paint1_linear_328_8)" stroke-width="100" stroke-linecap="round"/>
<path d="M194.177 127.295L125.941 126.941L126.295 195.177" stroke="url(#paint2_linear_328_8)" stroke-width="100" stroke-linecap="round"/>
<path d="M58 126.882L126.236 127.236L125.882 59.0001" stroke="url(#paint3_linear_328_8)" stroke-width="100" stroke-linecap="round"/>
<path d="M271 157.188H301.625C302.792 165.938 306.146 172.062 311.688 175.562C317.521 179.646 325.542 181.688 335.75 181.688C344.792 181.688 351.646 180.083 356.312 176.875C360.979 173.667 363.312 169 363.312 162.875C363.312 153.542 350.188 145.958 323.938 140.125L323.062 139.688C323.062 139.688 321.896 139.396 319.562 138.812C304.688 135.604 294.771 132.25 289.812 128.75C283.979 125.542 279.896 120.875 277.562 114.75C274.646 109.5 273.188 102.792 273.188 94.625C273.188 80.3333 278.146 69.1042 288.062 60.9375C297.979 53.0625 312.417 49.125 331.375 49.125C349.167 49.125 362.875 53.2083 372.5 61.375C382.417 70.4167 387.667 82.2292 388.25 96.8125H370.75C364.042 96.8125 359.229 93.75 356.312 87.625C354.854 84.7083 352.812 82.2292 350.188 80.1875C344.938 76.3958 337.792 74.5 328.75 74.5C320 74.5 313.729 76.1042 309.938 79.3125C305.562 82.5208 303.375 87.0417 303.375 92.875C303.375 100.75 311.833 106.583 328.75 110.375C333.708 111.833 337.354 112.708 339.688 113C344.938 114.75 349.458 116.208 353.25 117.375C357.333 118.25 360.542 118.979 362.875 119.562C366.958 121.312 371.042 123.062 375.125 124.812C380.958 128.312 385.479 132.833 388.688 138.375C391.896 144.5 393.5 151.208 393.5 158.5C393.5 174.25 388.25 186.5 377.75 195.25C367.25 203.417 352.375 207.5 333.125 207.5C313.292 207.5 298.417 203.271 288.5 194.812C277.708 186.354 271.875 173.812 271 157.188ZM413.065 204V69.25C413.065 64.875 414.523 61.2292 417.44 58.3125C420.648 55.1042 424.44 53.5 428.815 53.5H444.128V109.5H506.253V53.5H537.753V204H506.253V137.062H444.128V204H413.065ZM557.318 204V69.25C557.318 64.875 558.776 61.2292 561.693 58.3125C564.901 55.1042 568.693 53.5 573.068 53.5H588.38V204H557.318ZM603.133 204V69.25C603.133 64.875 604.591 61.2292 607.508 58.3125C610.716 55.1042 614.508 53.5 618.883 53.5H712.508V79.3125H633.758V111.688H692.383V121.75C692.383 126.125 690.778 129.917 687.57 133.125C684.653 136.042 681.008 137.5 676.633 137.5H633.758V176H712.508V204H603.133ZM731.198 204V69.25C731.198 64.875 732.656 61.2292 735.573 58.3125C738.781 55.1042 742.573 53.5 746.948 53.5H762.26V176H835.76V204H731.198ZM854.013 204V69.25C854.013 64.875 855.471 61.2292 858.388 58.3125C861.596 55.1042 865.388 53.5 869.763 53.5H913.075C936.117 53.5 953.325 59.625 964.7 71.875C976.075 84.7083 981.763 103.667 981.763 128.75C981.763 142.167 979.721 154.271 975.638 165.062C970.971 176.146 964.846 184.604 957.263 190.438C950.846 195.396 943.992 198.896 936.7 200.938C929.7 202.979 919.054 204 904.763 204H854.013ZM884.2 176.875H909.138C923.429 176.875 933.929 173.083 940.638 165.5C947.054 158.5 950.263 146.25 950.263 128.75C950.263 111.833 947.2 99.4375 941.075 91.5625C935.242 83.6875 925.908 79.75 913.075 79.75H884.2V176.875Z" fill="url(#paint4_linear_328_8)"/>
<defs>
<linearGradient id="paint0_linear_328_8" x1="177.029" y1="110.147" x2="109.147" y2="178.03" gradientUnits="userSpaceOnUse">
<stop stop-color="#877ECF"/>
<stop offset="1" stop-color="#A197C2"/>
</linearGradient>
<linearGradient id="paint1_linear_328_8" x1="91.9411" y1="92.9412" x2="126.236" y2="127.236" gradientUnits="userSpaceOnUse">
<stop stop-color="#E9C9A3"/>
<stop offset="1" stop-color="#DBB479"/>
</linearGradient>
<linearGradient id="paint2_linear_328_8" x1="177.029" y1="110.147" x2="109.147" y2="178.03" gradientUnits="userSpaceOnUse">
<stop stop-color="#6A887C"/>
<stop offset="1" stop-color="#7F9785"/>
</linearGradient>
<linearGradient id="paint3_linear_328_8" x1="91.9411" y1="92.9412" x2="126.236" y2="127.236" gradientUnits="userSpaceOnUse">
<stop stop-color="#DCDFCC"/>
<stop offset="1" stop-color="#C0CCAE"/>
</linearGradient>
<linearGradient id="paint4_linear_328_8" x1="629.5" y1="13" x2="629.5" y2="253" gradientUnits="userSpaceOnUse">
<stop stop-color="#6B8B81"/>
<stop offset="1" stop-color="#2C4A4E"/>
</linearGradient>
</defs>
</svg>
